<?xml version="1.0" encoding="UTF-8" standalone="no"?>
<svg width="14px" height="12px" viewBox="0 0 14 12" version="1.1" xmlns="http://www.w3.org/2000/svg" xmlns:xlink="http://www.w3.org/1999/xlink">
    <!-- Generator: sketchtool 40 (33762) - http://www.bohemiancoding.com/sketch -->
    <title>8AB8AE5A-E93A-481C-9A2B-1E1CC78BB56B</title>
    <desc>Created with sketchtool.</desc>
    <defs></defs>
    <g id="Page-1" stroke="none" stroke-width="1" fill="none" fill-rule="evenodd">
        <g id="COMMODITIES-03-Buy-01" transform="translate(-967.000000, -1892.000000)" fill="#5A5956">
            <g id="Group-13" transform="translate(0.000000, 1786.000000)">
                <path d="M973.923077,113.236 L967,106 L980.846154,106 L973.923077,113.236 L973.923077,113.236 L973.923077,113.236 L973.923077,113.236 Z M967,108.4 L967,115.6 L970.461538,112 L967,108.4 L967,108.4 L967,108.4 L967,108.4 Z M973.923077,115.6 L971.615385,113.2 L967,118 L980.846154,118 L976.230769,113.2 L973.923077,115.6 L973.923077,115.6 L973.923077,115.6 L973.923077,115.6 Z M980.846154,115.6 L980.846154,108.4 L977.384615,112 L980.846154,115.6 Z" id="Fill-6-Copy-3"></path>
            </g>
        </g>
    </g>
</svg>