<?xml version="1.0" encoding="UTF-8" standalone="no"?>
<svg width="14px" height="14px" viewBox="0 0 14 14" version="1.1" xmlns="http://www.w3.org/2000/svg" xmlns:xlink="http://www.w3.org/1999/xlink">
    <!-- Generator: sketchtool 40 (33762) - http://www.bohemiancoding.com/sketch -->
    <title>6C423E25-C545-4574-9D44-096208DC175F</title>
    <desc>Created with sketchtool.</desc>
    <defs></defs>
    <g id="Page-1" stroke="none" stroke-width="1" fill="none" fill-rule="evenodd">
        <g id="COMMODITIES-03-Buy-01" transform="translate(-968.000000, -1867.000000)" fill="#5A5956">
            <g id="Group-13" transform="translate(0.000000, 1786.000000)">
                <path d="M968.022435,84.6693313 C968.052,84.8768966 968.069391,85.0888096 968.124783,85.2898531 C968.652696,87.20594 969.511043,88.9435922 970.830609,90.4525487 C972.602783,92.4790705 974.712783,93.96394 977.316783,94.7289835 C978.723391,95.1422009 979.963826,94.8132444 981.107652,93.9923748 C981.735739,93.5416792 981.839739,92.8315053 981.92,92.1222879 C981.950087,91.85594 981.858609,91.6770705 981.63313,91.5467227 C980.712957,91.0148096 979.796087,90.4773313 978.874261,89.9482879 C978.651478,89.8203748 978.428261,89.844114 978.231304,90.0185487 C978.139391,90.09994 978.044609,90.1795922 977.96287,90.2706357 C977.639043,90.6315922 977.325739,91.0022009 976.997217,91.3588966 C976.697304,91.6845487 976.523739,91.7234183 976.137043,91.5126357 C975.297217,91.0548096 974.490522,90.5463748 973.77113,89.9075053 C972.860696,89.0988096 972.174,88.1209835 971.569652,87.0746357 C971.170435,86.3833313 971.177913,86.2593313 971.771217,85.7326357 C972.128087,85.4157661 972.504174,85.1188966 972.843652,84.7846357 C973.122348,84.5102009 973.126087,84.302114 972.932522,83.9623748 C972.48887,83.1835053 972.044609,82.4048966 971.596,81.6288096 C971.210609,80.962027 971.165217,80.9323748 970.402783,81.0591574 C969.853826,81.1504618 969.321652,81.3083748 968.963043,81.7806357 C968.378783,82.550114 968.06487,83.4228966 968,84.3330705 C968.009391,84.4816792 968.009217,84.5764618 968.022435,84.6693313 Z" id="Imported-Layers-Copy-7"></path>
            </g>
        </g>
    </g>
</svg>